<?xml version="1.0" standalone="no"?>
<!DOCTYPE svg PUBLIC "-//W3C//DTD SVG 20010904//EN"
 "http://www.w3.org/TR/2001/REC-SVG-20010904/DTD/svg10.dtd">
<svg version="1.0" xmlns="http://www.w3.org/2000/svg"
 width="500.000000pt" height="500.000000pt" viewBox="0 0 500.000000 500.000000"
 preserveAspectRatio="xMidYMid meet">
<metadata>
Created by potrace 1.16, written by Peter Selinger 2001-2019
</metadata>
<g transform="translate(0.000000,500.000000) scale(0.100000,-0.100000)"
fill="#000000" stroke="none">
<path d="M1787 4060 c-3 -14 -11 -81 -17 -150 -6 -69 -18 -186 -26 -260 -7
-74 -20 -207 -29 -295 -18 -195 -25 -248 -31 -243 -2 3 -15 57 -28 122 -13 65
-28 122 -34 128 -6 6 -26 -39 -57 -131 l-48 -141 -212 0 -213 0 -26 35 c-70
91 -211 53 -231 -63 -24 -141 152 -218 235 -102 l21 30 237 2 236 3 22 38 22
39 16 -79 c10 -43 31 -143 48 -223 17 -80 33 -152 35 -160 10 -30 21 27 33
156 6 71 15 165 20 209 5 44 14 136 20 205 12 136 25 171 35 94 3 -27 10 -83
15 -124 13 -94 58 -460 70 -560 5 -41 23 -185 40 -320 17 -135 35 -281 40
-325 18 -153 23 -185 30 -185 7 0 27 144 40 300 17 194 32 326 41 367 5 23 9
61 9 85 0 87 47 418 59 418 3 0 238 1 521 3 l515 2 48 33 c26 19 46 39 44 45
-3 9 -157 12 -607 12 l-604 0 -7 -35 c-4 -19 -12 -84 -19 -145 -6 -60 -17
-168 -25 -240 -8 -71 -16 -137 -16 -145 -3 -34 -67 427 -88 635 -5 50 -16 142
-25 205 -8 63 -19 153 -25 200 -5 47 -17 150 -26 230 -18 161 -33 267 -44 320
-8 33 -8 34 -14 10z"/>
<path d="M2248 3567 c-183 -52 -321 -260 -293 -442 7 -49 25 -52 25 -5 0 87
87 214 179 260 59 29 158 41 249 30 87 -11 183 -58 253 -123 83 -77 69 -77
157 6 107 100 163 127 262 127 63 0 86 -5 130 -27 115 -57 179 -161 166 -266
-12 -89 -35 -116 -217 -255 -306 -234 -437 -410 -427 -573 l4 -54 18 40 c10
22 29 64 43 93 46 98 262 295 424 386 121 68 172 107 228 178 129 161 105 384
-56 535 -80 75 -184 109 -305 101 -94 -7 -174 -48 -265 -138 -39 -38 -74 -70
-78 -70 -4 0 -41 32 -82 71 -100 94 -171 128 -284 134 -53 3 -101 0 -131 -8z"/>
<path d="M3520 2998 c-24 -40 -25 -54 -4 -62 27 -10 284 -7 305 4 22 12 26 59
7 78 -8 8 -56 12 -150 12 l-138 0 -20 -32z"/>
<path d="M1560 1829 c-46 -14 -98 -64 -111 -109 -6 -20 -9 -84 -7 -142 3 -118
13 -142 78 -185 44 -31 127 -31 180 -2 64 36 80 78 80 212 0 99 -3 121 -21
151 -38 64 -124 96 -199 75z m117 -126 c12 -30 14 -57 9 -123 -7 -94 -24 -120
-75 -120 -55 0 -71 33 -71 145 0 111 14 135 77 135 41 0 45 -2 60 -37z"/>
<path d="M3464 1817 c-2 -7 -3 -109 -2 -227 l3 -215 40 0 40 0 5 218 c3 119 4
222 2 227 -5 15 -82 12 -88 -3z"/>
<path d="M2227 1794 c-4 -4 -7 -22 -7 -41 0 -27 -5 -35 -26 -43 -21 -8 -25
-15 -22 -42 2 -25 8 -34 26 -36 21 -3 22 -7 22 -101 0 -117 14 -145 80 -156
50 -9 70 6 70 50 0 28 -5 35 -30 44 l-31 10 3 73 c3 72 3 73 33 78 27 5 30 9
30 40 0 31 -3 35 -30 40 -26 4 -31 10 -35 45 -5 37 -7 40 -40 43 -20 2 -39 0
-43 -4z"/>
<path d="M1968 1706 c-17 -9 -30 -10 -36 -4 -5 5 -27 8 -48 6 l-39 -3 -3 -221
-2 -222 26 -5 c55 -10 64 -1 64 70 0 63 1 65 23 58 85 -28 140 -6 175 69 49
103 11 220 -81 255 -37 14 -47 14 -79 -3z"/>
<path d="M2718 1704 c-16 -8 -28 -10 -28 -4 0 5 -20 10 -44 10 -33 0 -45 -4
-47 -17 -3 -10 -2 -85 1 -168 5 -163 7 -166 66 -151 24 6 24 8 24 115 0 95 2
110 20 126 17 15 24 16 45 7 24 -11 25 -14 25 -121 0 -122 6 -135 62 -129 l33
3 7 115 c8 120 19 146 56 133 28 -11 32 -24 32 -128 0 -110 6 -125 52 -125 40
0 46 24 44 161 -2 133 -13 160 -71 179 -38 13 -94 1 -115 -25 -9 -11 -17 -10
-47 11 -41 27 -76 30 -115 8z"/>
<path d="M3182 1699 c-45 -23 -69 -56 -59 -83 8 -20 64 -21 103 -1 35 17 74
10 74 -15 0 -15 -11 -18 -66 -22 -60 -4 -70 -7 -95 -36 -81 -90 13 -205 132
-163 23 8 36 8 45 0 7 -6 28 -9 46 -7 l33 3 3 131 c3 129 2 132 -23 163 -45
52 -123 64 -193 30z"/>
<path d="M2444 1697 c-2 -7 -3 -82 -2 -167 l3 -155 40 0 40 0 3 168 2 167 -40
0 c-24 0 -43 -5 -46 -13z"/>
<path d="M2007 1233 c-12 -11 -8 -261 3 -268 22 -13 40 17 40 65 l0 48 45 0
45 0 0 -48 c0 -48 21 -83 35 -60 9 14 11 258 2 266 -3 4 -13 4 -22 1 -11 -5
-15 -21 -15 -57 0 -45 -2 -50 -22 -50 -13 0 -33 -3 -45 -6 -22 -6 -23 -3 -23
43 0 56 -21 88 -43 66z"/>
<path d="M2857 1233 c-11 -10 -8 -261 2 -267 5 -4 16 -3 25 0 13 5 16 22 16
80 l0 74 30 0 30 0 0 -67 c0 -75 10 -99 34 -90 23 9 23 158 0 181 -19 19 -58
30 -79 22 -12 -4 -15 2 -15 28 0 22 -6 36 -16 40 -19 7 -19 7 -27 -1z"/>
<path d="M2255 1145 c-21 -20 -25 -34 -25 -80 0 -46 4 -60 25 -80 40 -41 125
-23 125 26 0 20 -24 26 -35 9 -9 -15 -51 -12 -65 4 -10 13 -3 15 47 18 l58 3
-1 44 c-1 33 -7 49 -24 63 -32 26 -76 23 -105 -7z"/>
<path d="M2450 1145 c-18 -19 -21 -28 -12 -37 9 -9 17 -9 35 1 26 14 57 12 60
-4 1 -5 -18 -12 -43 -15 -35 -4 -47 -10 -57 -30 -18 -35 -16 -57 7 -80 16 -16
31 -20 73 -17 29 2 58 6 65 11 8 4 12 32 12 77 0 61 -3 73 -25 94 -33 34 -83
34 -115 0z"/>
</g>
</svg>
